# AST/ASF file generated using VICON BodyLanguage
# -----------------------------------------------
:version 1.10
:name VICON
:units
  mass 1.0
  length 0.45
  angle deg
:documentation
   .ast/.asf automatically generated from VICON data using
   VICON BodyBuilder and BodyLanguage model FoxedUp or BRILLIANT.MOD
:root
   order TX TY TZ RX RY RZ
   axis XYZ
   position 0 0 0  
   orientation 0 0 0 
:bonedata
  begin
     id 1 
     name lhipjoint
     direction 0.577973 -0.728611 0.367523 
     length 2.48544 
     axis 0 0 0  XYZ
  end
  begin
     id 2 
     name lfemur
     direction 0.34202 -0.939693 0  
     length 7.1921  
     axis 0 0 20  XYZ
    dof rx ry rz
    limits (-160.0 20.0)
           (-70.0 70.0)
           (-60.0 70.0)
  end
  begin
     id 3 
     name ltibia
     direction 0.34202 -0.939693 0   
     length 7.71059   
     axis 0 0 20   XYZ
    dof rx
    limits (-10.0 170.0)
  end
  begin
     id 4 
     name lfoot
     direction 0.089538 -0.246004 0.965124   
     length 2.19909   
     axis -90 7.62852e-016 20   XYZ
    dof rx rz
    limits (-45.0 90.0)
           (-70.0 20.0)
  end
  begin
     id 5 
     name ltoes
     direction 1.53544e-011 -4.21829e-011 1   
     length 1.10116   
     axis -90 7.62852e-016 20   XYZ
    dof rx
    limits (-90.0 20.0)
  end
  begin
     id 6 
     name rhipjoint
     direction -0.554414 -0.743062 0.374812   
     length 2.4371  
     axis 0 0 0  XYZ 
  end
  begin
     id 7 
     name rfemur
     direction -0.34202 -0.939693 0   
     length 7.47254   
     axis 0 0 -20   XYZ
    dof rx ry rz
    limits (-160.0 20.0)
           (-70.0 70.0)
           (-70.0 60.0)
  end
  begin
     id 8 
     name rtibia
     direction -0.34202 -0.939693 0   
     length 7.65855   
     axis 0 0 -20   XYZ
    dof rx
    limits (-10.0 170.0)
 end
 begin
     id 9 
     name rfoot
     direction -0.133779 -0.367555 0.92033   
     length 2.43006  
     axis -90 -7.62852e-016 -20   XYZ
    dof rx rz
    limits (-45.0 90.0)
           (-20.0 70.0)
  end
  begin
     id 10 
     name rtoes
     direction -1.53563e-011 -4.21889e-011 1   
     length 1.19625   
     axis -90 -7.62852e-016 -20   XYZ
    dof rx
    limits (-90.0 20.0)
  end
  begin
     id 11 
     name lowerback
     direction 0.0249066 0.998043 -0.0573585   
     length 2.08485   
     axis 0 0 0   XYZ
    dof rx ry rz
    limits (-20.0 45.0)
           (-30.0 30.0)
           (-30.0 30.0)
  end
  begin
     id 12 
     name upperback
     direction 0.0237884 0.999673 0.00943178   
     length 2.08515   
     axis 0 0 0   XYZ
    dof rx ry rz
    limits (-20.0 45.0)
           (-30.0 30.0)
           (-30.0 30.0)
  end
  begin
     id 13 
     name thorax
     direction 0.0106671 0.999301 0.0358174   
     length 2.09037   
     axis 0 0 0   XYZ
    dof rx ry rz
    limits (-20.0 45.0)
           (-30.0 30.0)
           (-30.0 30.0)
  end
  begin
     id 14 
     name lowerneck
     direction -0.0580016 0.987052 0.149546   
     length 1.84454   
     axis 0 0 0   XYZ
    dof rx ry rz
    limits (-20.0 45.0)
           (-30.0 30.0)
           (-30.0 30.0)
  end
  begin
     id 15 
     name upperneck
     direction 0.079456 0.981963 -0.171567   
     length 1.88141   
     axis 0 0 0   XYZ
    dof rx ry rz
    limits (-20.0 45.0)
           (-30.0 30.0)
           (-30.0 30.0)
  end
  begin
     id 16
     name head
     direction 0.0262167 0.9967 -0.0768276  
     length 1.89541  
     axis 0 0 0   XYZ
    dof rx ry rz
    limits (-20.0 45.0)
           (-30.0 30.0)
           (-30.0 30.0)
  end
  begin
     id 17 
     name lclavicle
     direction 0.946135 0.322134 -0.0325326  
     length 3.949  
     axis 0 0 0   XYZ
    dof ry rz
    limits (-20.0 10.0)
           (0.0 20.0)
  end
  begin
     id 18 
     name lhumerus
     direction 1 -4.48964e-011 1.94005e-028   
     length 5.10995   
     axis 180 -30 -90   XYZ
    dof rx ry rz
    limits (-60.0 90.0)
           (-90.0 90.0)
           (-90.0 90.0)
  end
  begin
     id 19
     name lradius
     direction 1 -4.48976e-011 2.87852e-027   
     length 3.21207   
     axis 180 -30 -90   XYZ
    dof rx
    limits (-10.0 170.0)
  end
  begin
     id 20
     name lwrist
     direction 1 -4.48963e-011 1.9975e-027   
     length 1.60604   
     axis 2.96054e-016 90 90   XYZ
    dof ry
    limits (-180.0 0.0)
 end
  begin
     id 21 
     name lhand
     direction 1 -4.48919e-011 4.00227e-027   
     length 0.63349   
     axis -2.5488e-015 90 90   XYZ
    dof rx rz
    limits (-90.0 90.0)
           (-45.0 45.0)
  end
  begin
     id 22 
     name lfingers
     direction 1 -4.49037e-011 7.9652e-027   
     length 0.510736   
     axis -5.0975e-015 90 90   XYZ
    dof rx
    limits (0.0 90.0)
  end
  begin
     id 23
     name lthumb
     direction 0.707107 -6.34922e-011 0.707107   
     length 0.733318   
     axis -90 45 -4.48553e-014   XYZ
    dof rx rz
    limits (-45.0 45.0)
           (-45.0 45.0)
  end
  begin
     id 24 
     name rclavicle
     direction -0.940085 0.328911 -0.0897654   
     length 3.93848  
     axis 0 0 0   XYZ 
    dof ry rz
    limits (-10.0 20.0)
           (-20.0 0.0)
  end
  begin
     id 25 
     name rhumerus
     direction -1 -4.48958e-011 3.02044e-027  
     length 5.25109   
     axis 180 30 90   XYZ
    dof rx ry rz
    limits (-90.0 60.0)
           (-90.0 90.0)
           (-90.0 90.0)
  end
  begin
     id 26 
     name rradius
     direction -1 -4.4897e-011 9.78352e-028   
     length 3.28364   
     axis 180 30 90   XYZ
    dof rx
    limits (-10.0 170.0)
  end
  begin
     id 27 
     name rwrist
     direction -1 -4.48943e-011 1.99918e-027   
     length 1.64182   
     axis 2.96054e-016 -90 -90   XYZ
    dof ry
    limits (-180.0 0.0)
  end
  begin
     id 28
     name rhand
     direction -1 -4.49024e-011 3.98478e-027   
     length 0.599745   
     axis -2.5488e-015 -90 -90   XYZ
    dof rx rz
    limits (-90.0 90.0)
           (-45.0 45.0)
  end
  begin
     id 29
     name rfingers
     direction -1 -4.48914e-011 8.00621e-027   
     length 0.48353   
     axis -5.0975e-015 -90 -90   XYZ
    dof rx
    limits (0.0 90.0)
  end
  begin
     id 30
     name rthumb
     direction -0.707107 -6.34992e-011 0.707107   
     length 0.694255   
     axis -90 -45 4.48553e-014   XYZ
    dof rx rz
    limits (-45.0 45.0)
           (-45.0 45.0)
  end
:hierarchy
  begin
    root lhipjoint rhipjoint lowerback
    lhipjoint lfemur
    lfemur ltibia
    ltibia lfoot
    lfoot ltoes
    rhipjoint rfemur
    rfemur rtibia
    rtibia rfoot
    rfoot rtoes
    lowerback upperback
    upperback thorax
    thorax lowerneck lclavicle rclavicle
    lowerneck upperneck
    upperneck head
    lclavicle lhumerus
    lhumerus lradius
    lradius lwrist
    lwrist lhand lthumb
    lhand lfingers
    rclavicle rhumerus
    rhumerus rradius
    rradius rwrist
    rwrist rhand rthumb
    rhand rfingers
  end

#!OML:ASF E:\CV Data\Top Level 1\Subject 1\Session 1\player.ASF
:FULLY-SPECIFIED
:DEGREES
369
root 0.684278 17.6164 22.4481 -13.9125 51.0274 -16.9818
lowerback 10.106 0.115231 1.4471
upperback -4.53221 0.462268 0.835048
thorax -10.5613 0.162938 -0.00572066
lowerneck -0.0446049 -13.4764 -15.803
upperneck -22.3377 -15.6759 20.5565
head -3.42478 -7.74575 9.13785
rclavicle -6.85807e-015 1.59028e-015
rhumerus 58.0287 -9.02336 -63.6518
rradius 92.0306
rwrist -56.5679
rhand -18.8779 -2.80842
rfingers 7.12502
rthumb 7.42297 -32.6582
lclavicle -6.85807e-015 1.59028e-015
lhumerus 61.1093 -0.736299 34.2357
lradius 87.3305
lwrist 56.5313
lhand -20.9631 24.8057
lfingers 7.12502
lthumb 5.40994 54.7167
rfemur -17.1272 6.63533 21.5628
rtibia 38.7177
rfoot 1.64 -9.24818
rtoes -18.5087
lfemur -12.5703 -5.32006 -2.07349
ltibia 44.8245
lfoot -4.09877 -13.058
ltoes -14.1091
370
root 0.772276 18.032 22.7706 -13.5094 51.4965 -16.953
lowerback 8.83753 0.0466487 1.0079
upperback -5.15319 0.277849 0.583554
thorax -10.4956 0.0971768 0.00836823
lowerneck -0.352957 -13.5415 -15.8137
upperneck -20.9965 -15.8846 20.3833
head -2.9625 -7.83949 8.94554
rclavicle -2.5842e-014 -1.43125e-014
rhumerus 59.9075 -10.4931 -63.2938
rradius 90.0397
rwrist -56.5356
rhand -19.1228 -2.78631
rfingers 7.12502
rthumb 7.1866 -32.6443
lclavicle -2.5842e-014 -1.43125e-014
lhumerus 62.7315 1.27408 32.5551
lradius 85.2005
lwrist 57.7249
lhand -20.2573 24.7884
lfingers 7.12502
lthumb 6.09145 54.6808
rfemur -16.0134 5.35258 22.0503
rtibia 36.3269
rfoot 6.83215 -8.9768
rtoes -15.5566
lfemur -10.5299 -6.9387 -2.17876
ltibia 40.6225
lfoot 3.42441 -10.7931
ltoes -11.9153
371
root 0.860259 18.4367 23.0838 -13.0758 51.9593 -16.9359
lowerback 7.58919 -0.0505423 0.530226
upperback -5.78215 0.07282 0.414409
thorax -10.4483 0.0302353 0.13134
lowerneck -0.825998 -13.6229 -15.8815
upperneck -19.5488 -16.1213 20.0566
head -2.45562 -7.92662 8.69834
rclavicle -5.56597e-015 -7.95139e-015
rhumerus 61.7844 -11.9403 -62.7426
rradius 87.8083
rwrist -56.5895
rhand -19.3368 -2.8696
rfingers 7.12502
rthumb 6.98004 -32.7345
lclavicle -5.56597e-015 -7.95139e-015
lhumerus 64.3107 3.19396 30.9717
lradius 82.8419
lwrist 58.4712
lhand -19.2295 24.8152
lfingers 7.12502
lthumb 7.08364 54.6766
rfemur -15.4232 3.74858 22.4185
rtibia 34.7492
rfoot 11.372 -9.10371
rtoes -11.4914
lfemur -8.97501 -8.65824 -2.42628
ltibia 37.2358
lfoot 10.6473 -6.65036
ltoes -7.29664
372
root 0.943315 18.8285 23.3814 -12.592 52.3926 -16.8877
lowerback 6.43901 -0.147697 0.03342
upperback -6.40651 -0.112101 0.329171
thorax -10.4522 -0.0191787 0.346707
lowerneck -1.37108 -13.7121 -16.0133
upperneck -18.1604 -16.3565 19.6363
head -1.96453 -8.00062 8.43758
rclavicle -5.06901e-014 -1.90833e-014
rhumerus 63.7469 -13.4173 -62.097
rradius 85.3484
rwrist -56.6368
rhand -19.2783 -3.04899
rfingers 7.12502
rthumb 7.03652 -32.912
lclavicle -5.06901e-014 -1.90833e-014
lhumerus 65.9039 5.05679 29.6108
lradius 80.2071
lwrist 58.7584
lhand -17.7894 24.8071
lfingers 7.12502
lthumb 8.47354 54.6171
rfemur -15.2629 1.71034 22.6578
rtibia 34.0209
rfoot 15.0011 -9.00804
rtoes -7.09582
lfemur -7.89873 -10.3964 -2.86287
ltibia 34.9077
lfoot 16.3753 -0.740224
ltoes -0.782099
373
root 1.01603 19.2144 23.6584 -12.1024 52.7755 -16.8182
lowerback 5.48571 -0.224355 -0.43454
upperback -7.00298 -0.247282 0.330817
thorax -10.542 -0.0398235 0.628001
lowerneck -1.86184 -13.7886 -16.2147
upperneck -17.0397 -16.546 19.2083
head -1.56516 -8.04948 8.21522
rclavicle -1.98785e-016 3.18055e-015
rhumerus 65.8627 -14.933 -61.4727
rradius 82.719
rwrist -56.5849
rhand -18.9292 -3.3128
rfingers 7.12502
rthumb 7.37352 -33.1643
lclavicle -1.98785e-016 3.18055e-015
lhumerus 67.5682 6.90148 28.5875
lradius 77.2612
lwrist 58.6058
lhand -15.9451 24.6343
lfingers 7.12502
lthumb 10.2531 54.3644
rfemur -15.3326 -0.653027 22.8026
rtibia 34.0072
rfoot 17.979 -8.18303
rtoes -3.23126
lfemur -7.18794 -11.8635 -3.47027
ltibia 33.6662
lfoot 19.9865 6.09904
ltoes 7.40087
374
root 1.07335 19.6013 23.912 -11.7365 53.0943 -16.8104
lowerback 4.83298 -0.273802 -0.787943
upperback -7.53468 -0.321728 0.42035
thorax -10.7419 -0.0332641 0.92995
lowerneck -2.20347 -13.8339 -16.5098
upperneck -16.3256 -16.6556 18.8942
head -1.3001 -8.06389 8.08609
rclavicle 4.21423e-014 1.11319e-014
rhumerus 68.1856 -16.4614 -61.0102
rradius 79.9843
rwrist -56.3588
rhand -18.3732 -3.59712
rfingers 7.12502
rthumb 7.91018 -33.4291
lclavicle 4.21423e-014 1.11319e-014
lhumerus 69.3667 8.73229 27.9787
lradius 73.9959
lwrist 57.9588
lhand -13.8248 24.2415
lfingers 7.12502
lthumb 12.2981 53.8598
rfemur -15.3876 -2.87679 22.9271
rtibia 34.4769
rfoot 20.5683 -6.70731
rtoes -0.190469
lfemur -6.65134 -12.4496 -4.11873
ltibia 33.3257
lfoot 21.6765 12.2807
ltoes 15.9095
375
root 1.11134 19.9892 24.1431 -11.6647 53.362 -16.9735
lowerback 4.57354 -0.301988 -0.955662
upperback -7.96195 -0.344926 0.589904
thorax -11.0658 -0.0115945 1.20894
lowerneck -2.36889 -13.8436 -16.881
upperneck -16.0391 -16.6831 18.74
head -1.17507 -8.04512 8.06188
rclavicle 6.83819e-014 1.90833e-014
rhumerus 70.7062 -17.9734 -60.811
rradius 77.2762
rwrist -55.9606
rhand -17.7342 -3.81524
rfingers 7.12502
rthumb 8.52685 -33.6231
lclavicle 6.83819e-014 1.90833e-014
lhumerus 71.3413 10.5371 27.8044
lradius 70.4953
lwrist 56.8487
lhand -11.5261 23.6462
lfingers 7.12502
lthumb 14.5137 53.1186
rfemur -15.2363 -4.40773 23.1102
rtibia 35.2193
rfoot 22.8914 -5.06242
rtoes 2.13996
lfemur -6.09841 -11.5855 -4.61109
ltibia 33.6107
lfoot 22.5679 16.0473
ltoes 22.522
376
root 1.12882 20.3727 24.3563 -12.0513 53.6046 -17.4168
lowerback 4.74906 -0.338205 -0.899677
upperback -8.25677 -0.357061 0.828275
thorax -11.508 -0.000140637 1.43961
lowerneck -2.40173 -13.8149 -17.3133
upperneck -16.0505 -16.6362 18.7499
head -1.14478 -7.99615 8.1294
rclavicle -9.74045e-014 -1.90833e-014
rhumerus 73.3572 -19.4518 -60.9295
rradius 74.7329
rwrist -55.4375
rhand -17.1891 -3.94392
rfingers 7.12502
rthumb 9.05291 -33.7296
lclavicle -9.74045e-014 -1.90833e-014
lhumerus 73.4809 12.2528 28.0492
lradius 66.93
lwrist 55.3077
lhand -9.27757 22.9979
lfingers 7.12502
lthumb 16.6792 52.3013
rfemur -14.8137 -5.02893 23.4342
rtibia 36.1034
rfoot 25.0918 -3.66482
rtoes 4.17713
lfemur -5.37602 -9.43051 -4.80677
ltibia 34.3095
lfoot 23.9475 16.8229
ltoes 26.3779
377
root 1.12815 20.7442 24.5588 -12.959 53.8614 -18.1582
lowerback 5.31568 -0.408827 -0.642893
upperback -8.40395 -0.395464 1.10399
thorax -12.0247 -0.0188735 1.60778
lowerneck -2.3476 -13.7591 -17.7168
upperneck -16.2192 -16.547 18.8215
head -1.17596 -7.93242 8.23121
rclavicle 3.18055e-014 1.11319e-014
rhumerus 76.0507 -20.8672 -61.3797
rradius 72.451
rwrist -54.7973
rhand -16.892 -3.97955
rfingers 7.12502
rthumb 9.33957 -33.7527
lclavicle 3.18055e-014 1.11319e-014
lhumerus 75.7557 13.7732 28.6858
lradius 63.5117
lwrist 53.3274
lhand -7.2193 22.4028
lfingers 7.12502
lthumb 18.6599 51.5278
rfemur -14.1302 -4.92322 23.9349
rtibia 37.0814
rfoot 27.0901 -2.53955
rtoes 5.95542
lfemur -4.39769 -6.7847 -4.72702
ltibia 35.316
lfoot 26.0568 15.2342
ltoes 27.9213
